<svg width="94" height="78" viewBox="0 0 94 78" fill="none" xmlns="http://www.w3.org/2000/svg">
<rect width="94" height="78" fill="#F3F3F3"/>
<path d="M16.8864 21.0909L26.6023 49.5227H26.9943L36.7102 21.0909H42.4034L29.8409 56H23.7557L11.1932 21.0909H16.8864ZM45.7528 56.3239C44.821 56.3239 44.0199 55.9943 43.3494 55.3352C42.679 54.6648 42.3438 53.858 42.3438 52.9148C42.3438 51.983 42.679 51.1875 43.3494 50.5284C44.0199 49.858 44.821 49.5227 45.7528 49.5227C46.6847 49.5227 47.4858 49.858 48.1562 50.5284C48.8267 51.1875 49.1619 51.983 49.1619 52.9148C49.1619 53.5398 49.0028 54.1136 48.6847 54.6364C48.3778 55.1477 47.9688 55.5568 47.4574 55.8636C46.946 56.1705 46.3778 56.3239 45.7528 56.3239ZM75.4375 30.2614C75.2557 28.6477 74.5057 27.3977 73.1875 26.5114C71.8693 25.6136 70.2102 25.1648 68.2102 25.1648C66.7784 25.1648 65.5398 25.392 64.4943 25.8466C63.4489 26.2898 62.6364 26.9034 62.0568 27.6875C61.4886 28.4602 61.2045 29.3409 61.2045 30.3295C61.2045 31.1591 61.3977 31.875 61.7841 32.4773C62.1818 33.0795 62.6989 33.5852 63.3352 33.9943C63.983 34.392 64.6761 34.7273 65.4148 35C66.1534 35.2614 66.8636 35.4773 67.5455 35.6477L70.9545 36.5341C72.0682 36.8068 73.2102 37.1761 74.3807 37.642C75.5511 38.108 76.6364 38.7216 77.6364 39.483C78.6364 40.2443 79.4432 41.1875 80.0568 42.3125C80.6818 43.4375 80.9943 44.7841 80.9943 46.3523C80.9943 48.3295 80.483 50.0852 79.4602 51.6193C78.4489 53.1534 76.9773 54.3636 75.0455 55.25C73.125 56.1364 70.8011 56.5795 68.0739 56.5795C65.4602 56.5795 63.1989 56.1648 61.2898 55.3352C59.3807 54.5057 57.8864 53.3295 56.8068 51.8068C55.7273 50.2727 55.1307 48.4545 55.017 46.3523H60.3011C60.4034 47.6136 60.8125 48.6648 61.5284 49.5057C62.2557 50.3352 63.1818 50.9545 64.3068 51.3636C65.4432 51.7614 66.6875 51.9602 68.0398 51.9602C69.5284 51.9602 70.8523 51.7273 72.0114 51.2614C73.1818 50.7841 74.1023 50.125 74.7727 49.2841C75.4432 48.4318 75.7784 47.4375 75.7784 46.3011C75.7784 45.267 75.483 44.4205 74.892 43.7614C74.3125 43.1023 73.5227 42.5568 72.5227 42.125C71.5341 41.6932 70.4148 41.3125 69.1648 40.983L65.0398 39.858C62.2443 39.0966 60.0284 37.9773 58.392 36.5C56.767 35.0227 55.9545 33.0682 55.9545 30.6364C55.9545 28.625 56.5 26.8693 57.5909 25.3693C58.6818 23.8693 60.1591 22.7045 62.0227 21.875C63.8864 21.0341 65.9886 20.6136 68.3295 20.6136C70.6932 20.6136 72.7784 21.0284 74.5852 21.858C76.4034 22.6875 77.8352 23.8295 78.8807 25.2841C79.9261 26.7273 80.4716 28.3864 80.517 30.2614H75.4375Z" fill="black"/>
</svg>
